<?xml version="1.0" standalone="no"?>
<!DOCTYPE svg PUBLIC "-//W3C//DTD SVG 20010904//EN"
 "http://www.w3.org/TR/2001/REC-SVG-20010904/DTD/svg10.dtd">
<svg version="1.0" xmlns="http://www.w3.org/2000/svg"
 width="512.000000pt" height="512.000000pt" viewBox="0 0 512.000000 512.000000"
 preserveAspectRatio="xMidYMid meet">

<g transform="translate(0.000000,512.000000) scale(0.100000,-0.100000)"
fill="#000000" stroke="none">
<path d="M764 4500 c-160 -51 -281 -181 -319 -342 -23 -96 -22 -2306 0 -2393
47 -178 197 -321 374 -355 30 -5 91 -10 137 -10 l84 0 0 -374 c0 -363 1 -374
21 -400 15 -20 29 -26 57 -26 35 0 55 18 437 400 l400 400 1146 0 c738 0 1165
4 1200 10 177 34 327 177 374 355 22 87 23 2297 0 2393 -39 163 -160 292 -323
342 -63 20 -96 20 -1796 19 -1679 0 -1733 -1 -1792 -19z m2654 -685 c520 -182
732 -261 745 -276 10 -13 17 -38 17 -63 0 -53 -25 -79 -101 -104 l-54 -19 -3
-514 -2 -515 34 -12 c53 -19 122 -87 153 -149 22 -47 27 -70 27 -128 0 -94
-30 -160 -100 -224 -69 -63 -132 -85 -223 -79 -196 14 -323 199 -267 390 19
68 94 155 155 183 l41 18 0 485 c0 383 -3 483 -12 480 -7 -3 -288 -96 -625
-207 -418 -137 -626 -201 -656 -201 -58 0 -1479 499 -1514 531 -33 32 -33 102
1 132 38 33 1536 525 1604 526 44 1 168 -40 780 -254z m262 -928 c0 -192 -10
-268 -45 -338 -32 -62 -113 -133 -181 -158 -54 -21 -72 -21 -859 -21 -789 0
-805 0 -860 21 -77 29 -154 102 -191 181 -28 62 -29 66 -32 271 -3 136 0 207
6 207 6 0 210 -70 454 -156 542 -191 488 -175 578 -175 70 0 106 10 585 169
281 94 518 170 528 171 16 1 17 -14 17 -172z"/>
</g>
</svg>
